<svg width="12" height="26" viewBox="0 0 12 26" fill="none" xmlns="http://www.w3.org/2000/svg">
<path d="M10.8514 0.00520559L8.17115 0C5.15993 0 3.21395 2.4167 3.21395 6.15717V6.30113C3.21395 7.78949 2.00739 8.99604 0.519034 8.99604C0.286161 8.99604 0.0975838 9.22456 0.0975838 9.50645V13.6196C0.0975838 13.9016 0.286377 14.1298 0.519034 14.1298C2.00739 14.1298 3.21395 15.3364 3.21395 16.8247V24.5087C3.21395 24.7906 3.40253 25.0188 3.6354 25.0188H7.15149C7.38436 25.0188 7.57294 24.7903 7.57294 24.5087V17.2808C7.57294 15.5406 8.98369 14.1298 10.7239 14.1298C10.9568 14.1298 11.1454 13.9016 11.1454 13.6196L11.1467 9.50645C11.1467 9.3711 11.1022 9.24149 11.0232 9.14569C10.9443 9.04991 10.8368 8.99604 10.725 8.99604H9.97949C8.65039 8.99604 7.57294 7.91859 7.57294 6.58949C7.57294 5.43281 7.80066 4.84562 9.04544 4.84562L10.851 4.84484C11.0837 4.84484 11.2722 4.61631 11.2722 4.3347V0.515354C11.2722 0.233992 11.0839 0.00572615 10.8514 0.00520559Z" fill="#1168A7"/>
</svg>
