<svg width="240" height="47" viewBox="0 0 240 47" fill="none" xmlns="http://www.w3.org/2000/svg">
<path d="M13.9 1.40002L17.9 5.20001C19.4 6.60001 20.2 8.50002 20.2 10.6C20.2 12.6 21 14.5 22.4 15.9L22.9 16.4L27.5 1.50002" fill="#FF0000"/>
<path d="M0.300003 14.7L5.8 14.5C7.8 14.4 9.8 15.2 11.2 16.6C12.6 18 14.5 18.7 16.5 18.7H17.2L9.8 5" fill="black"/>
<path d="M0.300003 33.7L4 29.7C5.4 28.2 7.3 27.3 9.3 27.3C11.3 27.3 13.1 26.4 14.5 25L15 24.5L0 20.2" fill="#7000FF"/>
<path d="M13.9 46.9L13.6 41.4C13.5 39.4 14.2 37.4 15.6 35.9C16.9 34.5 17.7 32.5 17.6 30.6V29.9L4 37.6" fill="#3301F8"/>
<path d="M32.9 46.5L28.8 42.9C27.3 41.6 26.4 39.7 26.3 37.6C26.2 35.6 25.3 33.8 23.9 32.4L23.4 31.9L19.4 47" fill="#58B8FF"/>
<path d="M45.9 32.6L40.4 33C38.4 33.2 36.4 32.5 34.9 31.1C33.4 29.8 31.5 29.1 29.5 29.2H28.8L36.8 42.6" fill="#00B533"/>
<path d="M45 13.7L41.5 17.9C40.2 19.4 38.3 20.4 36.3 20.5C34.3 20.6 32.5 21.5 31.2 23L30.8 23.5L46 27.1" fill="#F0E937"/>
<path d="M30.9 1L31.4 6.5C31.6 8.5 31 10.5 29.6 12.1C28.3 13.6 27.7 15.5 27.8 17.5L27.9 18.2L41.1 9.90001" fill="#FFA800"/>
<path d="M54.9395 16.1924C54.9395 15.224 54.9281 14.3809 54.9053 13.6631C54.8825 12.9339 54.8483 12.3073 54.8027 11.7832C54.7572 11.2477 54.7002 10.8034 54.6318 10.4502C54.5749 10.097 54.5122 9.80078 54.4438 9.56152V9.49316C54.6717 9.50456 54.911 9.51025 55.1616 9.51025C55.3781 9.52165 55.6174 9.52734 55.8794 9.52734C56.1528 9.52734 56.432 9.52734 56.7168 9.52734C57.127 9.52734 57.6795 9.48747 58.3745 9.40771C59.0809 9.32796 59.9867 9.28809 61.0918 9.28809C62.1172 9.28809 63.0628 9.4248 63.9287 9.69824C64.7946 9.96029 65.5409 10.342 66.1675 10.8433C66.8055 11.3446 67.3011 11.9655 67.6543 12.7061C68.0189 13.4352 68.2012 14.2669 68.2012 15.2012C68.2012 15.9873 68.0929 16.6937 67.8765 17.3203C67.66 17.9355 67.3524 18.4767 66.9536 18.9438C66.5662 19.3996 66.0934 19.7869 65.5352 20.106C64.9883 20.4136 64.3844 20.6585 63.7236 20.8408C64.6921 20.9889 65.575 21.2396 66.3726 21.5928C67.1701 21.9346 67.8537 22.3675 68.4233 22.8916C69.0044 23.4157 69.4487 24.0309 69.7563 24.7373C70.0754 25.4323 70.2349 26.207 70.2349 27.0615C70.2349 29.4655 69.443 31.2713 67.8594 32.479C66.2757 33.6753 63.9059 34.2734 60.75 34.2734C60.4082 34.2734 60.0094 34.2563 59.5537 34.2222C59.098 34.1994 58.6309 34.1709 58.1523 34.1367C57.6852 34.1025 57.2238 34.0684 56.7681 34.0342C56.3123 34.0114 55.9136 34 55.5718 34H54.4438V33.9316C54.5122 33.6924 54.5749 33.3962 54.6318 33.043C54.7002 32.6898 54.7572 32.2511 54.8027 31.7271C54.8483 31.203 54.8825 30.582 54.9053 29.8643C54.9281 29.1351 54.9395 28.2863 54.9395 27.3179V16.1924ZM61.2114 21.8833C60.4367 21.8833 59.7873 21.9118 59.2632 21.9688C58.7391 22.0257 58.3346 22.0827 58.0498 22.1396V27.3179C58.0498 28.6509 58.0726 29.7503 58.1182 30.6162C58.1637 31.4821 58.2264 32.1885 58.3062 32.7354C58.7391 32.7923 59.172 32.8436 59.605 32.8892C60.0379 32.9347 60.3854 32.9575 60.6475 32.9575C62.778 32.9575 64.3332 32.4847 65.313 31.5391C66.3042 30.582 66.7998 29.118 66.7998 27.147C66.7998 26.3722 66.6802 25.6659 66.4409 25.0278C66.2131 24.3784 65.8656 23.8201 65.3984 23.353C64.9427 22.8859 64.3617 22.527 63.6553 22.2764C62.9603 22.0143 62.1457 21.8833 61.2114 21.8833ZM58.0498 20.6016C58.3688 20.6357 58.6536 20.6585 58.9043 20.6699C59.1549 20.6699 59.4227 20.6699 59.7075 20.6699C60.4823 20.6699 61.1886 20.5617 61.8267 20.3452C62.4647 20.1174 63.0059 19.7812 63.4502 19.3369C63.9059 18.8926 64.2591 18.34 64.5098 17.6792C64.7604 17.007 64.8857 16.2266 64.8857 15.3379C64.8857 14.5973 64.7946 13.9251 64.6123 13.3213C64.43 12.7174 64.1566 12.2048 63.792 11.7832C63.4388 11.3503 63.0002 11.0199 62.4761 10.792C61.952 10.5641 61.3538 10.4502 60.6816 10.4502C60.2487 10.4502 59.867 10.4673 59.5366 10.5015C59.2176 10.5356 58.9442 10.5755 58.7163 10.6211C58.4543 10.6667 58.2321 10.7236 58.0498 10.792V20.6016ZM77.3613 25.0791C77.5892 25.1133 77.8171 25.1418 78.0449 25.1646C78.2842 25.1759 78.512 25.1816 78.7285 25.1816C80.1527 25.1816 81.2293 24.8 81.9585 24.0366C82.6991 23.2733 83.0693 22.1283 83.0693 20.6016C83.0693 19.3483 82.7731 18.3571 82.1807 17.6279C81.5996 16.8988 80.7394 16.5342 79.6001 16.5342C79.2355 16.5342 78.9108 16.5513 78.626 16.5854C78.3525 16.6082 78.119 16.6367 77.9253 16.6709C77.7088 16.7165 77.5208 16.762 77.3613 16.8076V25.0791ZM79.9761 26.1899C79.7482 26.2241 79.5203 26.2469 79.2925 26.2583C79.076 26.2583 78.8538 26.2583 78.626 26.2583C78.4437 26.2583 78.2443 26.2526 78.0278 26.2412C77.8114 26.2298 77.5892 26.2127 77.3613 26.1899V27.0273C77.3613 28.0413 77.3727 28.93 77.3955 29.6934C77.4183 30.4453 77.4468 31.0947 77.481 31.6416C77.5265 32.1885 77.5778 32.6499 77.6348 33.0259C77.6917 33.3905 77.7601 33.6924 77.8398 33.9316V34H73.8921V33.9316C73.9718 33.6924 74.0402 33.3848 74.0972 33.0088C74.1655 32.6328 74.2168 32.1714 74.251 31.6245C74.2965 31.0662 74.3307 30.4054 74.3535 29.6421C74.3763 28.8787 74.3877 27.9844 74.3877 26.959V22.6523C74.3877 21.627 74.3763 20.7383 74.3535 19.9863C74.3307 19.223 74.2965 18.5679 74.251 18.021C74.2168 17.4627 74.1655 16.9956 74.0972 16.6196C74.0402 16.2437 73.9718 15.936 73.8921 15.6968V15.6284C74.0744 15.6398 74.2681 15.6512 74.4731 15.6626C74.644 15.674 74.832 15.6854 75.0371 15.6968C75.2536 15.6968 75.4701 15.6968 75.6865 15.6968C76.0511 15.6968 76.5923 15.6626 77.3101 15.5942C78.0278 15.5259 78.8709 15.4917 79.8394 15.4917C80.8192 15.4917 81.7078 15.6113 82.5054 15.8506C83.3143 16.0898 84.0036 16.4316 84.5732 16.876C85.1543 17.3203 85.5986 17.8615 85.9062 18.4995C86.2253 19.1375 86.3848 19.8496 86.3848 20.6357C86.3848 21.251 86.2993 21.8149 86.1284 22.3276C85.9575 22.8289 85.7183 23.2847 85.4106 23.6948C85.103 24.0936 84.7384 24.4468 84.3169 24.7544C83.8953 25.062 83.4282 25.3298 82.9155 25.5576L86.4873 30.5991C86.7949 31.0093 87.1025 31.4023 87.4102 31.7783C87.7292 32.1543 88.0311 32.4904 88.3159 32.7866C88.6007 33.0828 88.8685 33.3335 89.1191 33.5386C89.3698 33.7323 89.5806 33.8633 89.7515 33.9316V34H85.2739C85.2739 33.8975 85.1999 33.7209 85.0518 33.4702C84.915 33.2082 84.7498 32.9404 84.5562 32.667C84.3739 32.3822 84.1859 32.1087 83.9922 31.8467C83.8099 31.5846 83.6732 31.391 83.582 31.2656L79.9761 26.1899ZM102.518 28.2236C102.21 28.2236 101.823 28.2236 101.355 28.2236C100.9 28.2236 100.398 28.2236 99.8516 28.2236C99.3047 28.2236 98.7407 28.2236 98.1597 28.2236C97.5786 28.2236 97.026 28.2293 96.502 28.2407C95.9779 28.2407 95.4993 28.2464 95.0664 28.2578C94.6335 28.2578 94.2974 28.2578 94.0581 28.2578L93.4258 29.5908C93.1523 30.1377 92.9188 30.6162 92.7251 31.0264C92.5314 31.4251 92.3719 31.7783 92.2466 32.0859C92.1213 32.3936 92.0301 32.6613 91.9731 32.8892C91.9162 33.1056 91.8877 33.3107 91.8877 33.5044C91.8877 33.6297 91.8934 33.7266 91.9048 33.7949C91.9162 33.8519 91.9333 33.8975 91.9561 33.9316V34H88.9482V33.9316C89.028 33.8519 89.1533 33.681 89.3242 33.4189C89.4951 33.1455 89.6888 32.8151 89.9053 32.4277C90.1331 32.0404 90.3724 31.6017 90.623 31.1118C90.8851 30.6219 91.1414 30.1149 91.3921 29.5908L98.3647 15.2012H99.6465L106.482 29.5908C106.744 30.1377 107.007 30.6618 107.269 31.1631C107.542 31.6644 107.793 32.1144 108.021 32.5132C108.248 32.9006 108.448 33.2253 108.619 33.4873C108.79 33.738 108.903 33.8861 108.96 33.9316V34H104.585C104.608 33.9089 104.62 33.8291 104.62 33.7607C104.62 33.681 104.62 33.5955 104.62 33.5044C104.62 33.2537 104.563 32.9518 104.449 32.5986C104.346 32.2454 104.215 31.8866 104.056 31.522C103.908 31.146 103.748 30.7871 103.577 30.4453C103.418 30.1035 103.287 29.8187 103.184 29.5908L102.518 28.2236ZM94.7246 26.8906H95.7671C96.2456 26.8906 96.7526 26.8906 97.2881 26.8906C97.835 26.8792 98.3818 26.8735 98.9287 26.8735C99.4756 26.8735 100.005 26.8735 100.518 26.8735C101.031 26.8621 101.492 26.8564 101.902 26.8564L98.3647 19.3027L94.7246 26.8906ZM111.678 22.6523C111.678 21.627 111.666 20.7383 111.644 19.9863C111.621 19.223 111.587 18.5679 111.541 18.021C111.507 17.4627 111.456 16.9956 111.387 16.6196C111.33 16.2437 111.262 15.936 111.182 15.6968V15.6284H115.147V15.6968C115.067 15.936 114.993 16.2437 114.925 16.6196C114.868 16.9956 114.817 17.4627 114.771 18.021C114.737 18.5679 114.708 19.223 114.686 19.9863C114.663 20.7383 114.651 21.627 114.651 22.6523V26.959C114.651 27.9844 114.663 28.8787 114.686 29.6421C114.708 30.4054 114.737 31.0662 114.771 31.6245C114.817 32.1714 114.868 32.6328 114.925 33.0088C114.993 33.3848 115.067 33.6924 115.147 33.9316V34H111.182V33.9316C111.262 33.6924 111.33 33.3848 111.387 33.0088C111.456 32.6328 111.507 32.1714 111.541 31.6245C111.587 31.0662 111.621 30.4054 111.644 29.6421C111.666 28.8787 111.678 27.9844 111.678 26.959V22.6523ZM136.321 34.2393H135.655L122.068 20.875V26.959C122.068 27.9844 122.074 28.8787 122.085 29.6421C122.097 30.4054 122.114 31.0662 122.137 31.6245C122.171 32.1714 122.211 32.6328 122.256 33.0088C122.313 33.3848 122.382 33.6924 122.461 33.9316V34H119.898V33.9316C119.978 33.6924 120.046 33.3848 120.103 33.0088C120.16 32.6328 120.206 32.1714 120.24 31.6245C120.274 31.0662 120.297 30.4054 120.308 29.6421C120.319 28.8787 120.325 27.9844 120.325 26.959V22.6523C120.325 21.627 120.319 20.7383 120.308 19.9863C120.297 19.223 120.274 18.5679 120.24 18.021C120.206 17.4627 120.16 16.9956 120.103 16.6196C120.046 16.2437 119.978 15.936 119.898 15.6968V15.6284H120.958L134.561 29.061V22.6523C134.561 21.627 134.555 20.7383 134.544 19.9863C134.533 19.223 134.51 18.5679 134.476 18.021C134.453 17.4627 134.419 16.9956 134.373 16.6196C134.327 16.2437 134.265 15.936 134.185 15.6968V15.6284H136.731V15.6968C136.652 15.936 136.583 16.2437 136.526 16.6196C136.481 16.9956 136.441 17.4627 136.407 18.021C136.373 18.5679 136.35 19.223 136.338 19.9863C136.327 20.7383 136.321 21.627 136.321 22.6523V34.2393ZM151.651 13.3896H151.275C151.184 13.1276 151.036 12.8314 150.831 12.501C150.637 12.1706 150.375 11.863 150.044 11.5781C149.725 11.2819 149.332 11.0369 148.865 10.8433C148.41 10.6496 147.868 10.5527 147.242 10.5527C146.683 10.5527 146.188 10.6382 145.755 10.8091C145.322 10.98 144.957 11.2192 144.661 11.5269C144.376 11.8345 144.16 12.1991 144.012 12.6206C143.864 13.0422 143.79 13.5093 143.79 14.022C143.79 14.8423 144.017 15.6284 144.473 16.3804C144.94 17.1209 145.521 17.8558 146.216 18.585C146.911 19.3141 147.663 20.0433 148.472 20.7725C149.281 21.5016 150.033 22.2593 150.728 23.0454C151.423 23.8315 151.998 24.6576 152.454 25.5234C152.921 26.3779 153.155 27.3008 153.155 28.292C153.155 29.0326 153.024 29.7788 152.762 30.5308C152.511 31.2713 152.118 31.9378 151.583 32.5303C151.047 33.1227 150.358 33.6069 149.515 33.9829C148.672 34.3475 147.669 34.5298 146.507 34.5298C145.857 34.5298 145.236 34.4671 144.644 34.3418C144.063 34.2279 143.522 34.0854 143.021 33.9146C142.531 33.7323 142.086 33.5386 141.688 33.3335C141.3 33.1284 140.981 32.9404 140.73 32.7695L141.124 28.9927H141.551C141.676 29.5282 141.881 30.0409 142.166 30.5308C142.451 31.0093 142.798 31.4365 143.208 31.8125C143.63 32.1771 144.109 32.4733 144.644 32.7012C145.18 32.9176 145.766 33.0259 146.404 33.0259C146.985 33.0259 147.504 32.9404 147.959 32.7695C148.427 32.5872 148.825 32.3423 149.156 32.0347C149.486 31.7157 149.737 31.3397 149.908 30.9067C150.09 30.4738 150.181 30.001 150.181 29.4883C150.181 28.7705 150.05 28.1097 149.788 27.5059C149.526 26.8906 149.179 26.3096 148.746 25.7627C148.324 25.2158 147.84 24.686 147.293 24.1733C146.757 23.6606 146.205 23.1479 145.635 22.6353C145.066 22.1112 144.507 21.5757 143.96 21.0288C143.425 20.4819 142.941 19.9009 142.508 19.2856C142.086 18.659 141.744 17.9925 141.482 17.2861C141.22 16.5684 141.089 15.7822 141.089 14.9277C141.089 14.0277 141.26 13.2188 141.602 12.501C141.955 11.7718 142.417 11.1509 142.986 10.6382C143.567 10.1255 144.222 9.73242 144.952 9.45898C145.681 9.18555 146.433 9.04883 147.208 9.04883C147.777 9.04883 148.301 9.0944 148.78 9.18555C149.258 9.27669 149.686 9.38493 150.062 9.51025C150.449 9.63558 150.785 9.7609 151.07 9.88623C151.355 10.0116 151.588 10.1141 151.771 10.1938L151.651 13.3896ZM161.683 16.8931C160.646 16.8931 159.7 16.9386 158.846 17.0298C158.003 17.1209 157.273 17.2178 156.658 17.3203C155.952 17.4456 155.314 17.5824 154.744 17.7305L155.086 15.5259C155.257 15.5487 155.536 15.5658 155.923 15.5771C156.311 15.5885 156.715 15.5999 157.137 15.6113C157.57 15.6113 157.974 15.617 158.35 15.6284C158.737 15.6284 159.005 15.6284 159.153 15.6284H167.237C167.374 15.6284 167.624 15.6284 167.989 15.6284C168.365 15.617 168.764 15.6113 169.185 15.6113C169.607 15.5999 170.011 15.5885 170.398 15.5771C170.786 15.5658 171.065 15.5487 171.236 15.5259L171.578 17.7305C171.031 17.5824 170.404 17.4456 169.698 17.3203C169.094 17.2178 168.365 17.1209 167.51 17.0298C166.667 16.9386 165.716 16.8931 164.656 16.8931V26.959C164.656 27.9844 164.668 28.8787 164.69 29.6421C164.713 30.4054 164.742 31.0662 164.776 31.6245C164.821 32.1714 164.873 32.6328 164.93 33.0088C164.987 33.3848 165.055 33.6924 165.135 33.9316V34H161.187V33.9316C161.267 33.6924 161.335 33.3848 161.392 33.0088C161.449 32.6328 161.5 32.1714 161.546 31.6245C161.591 31.0662 161.626 30.4054 161.648 29.6421C161.671 28.8787 161.683 27.9844 161.683 26.959V16.8931ZM172.518 24.7544C172.518 23.41 172.768 22.1624 173.27 21.0117C173.782 19.861 174.477 18.8641 175.354 18.021C176.232 17.1665 177.269 16.5 178.465 16.0215C179.661 15.543 180.943 15.3037 182.31 15.3037C183.654 15.3037 184.919 15.5316 186.104 15.9873C187.3 16.4316 188.337 17.0697 189.214 17.9014C190.103 18.7331 190.804 19.7414 191.316 20.9263C191.829 22.1112 192.085 23.4385 192.085 24.9082C192.085 26.1273 191.869 27.3065 191.436 28.4458C191.003 29.5737 190.371 30.5763 189.539 31.4536C188.707 32.3195 187.682 33.0145 186.463 33.5386C185.244 34.0513 183.848 34.3076 182.276 34.3076C180.943 34.3076 179.684 34.0854 178.499 33.6411C177.314 33.1968 176.277 32.5645 175.389 31.7441C174.5 30.9124 173.799 29.9098 173.287 28.7363C172.774 27.5514 172.518 26.2241 172.518 24.7544ZM182.703 33.0942C183.569 33.0942 184.367 32.9233 185.096 32.5815C185.825 32.2397 186.451 31.7498 186.976 31.1118C187.511 30.4738 187.921 29.6991 188.206 28.7876C188.502 27.8647 188.65 26.828 188.65 25.6772C188.65 24.367 188.508 23.1536 188.223 22.0371C187.95 20.9206 187.528 19.9578 186.958 19.1489C186.4 18.3286 185.7 17.6906 184.856 17.2349C184.013 16.7677 183.028 16.5342 181.9 16.5342C181.034 16.5342 180.236 16.6994 179.507 17.0298C178.778 17.3602 178.146 17.8387 177.61 18.4653C177.086 19.092 176.676 19.861 176.38 20.7725C176.084 21.6839 175.936 22.7207 175.936 23.8828C175.936 25.1816 176.078 26.395 176.363 27.5229C176.659 28.6395 177.086 29.6136 177.645 30.4453C178.214 31.2656 178.921 31.915 179.764 32.3936C180.607 32.8607 181.587 33.0942 182.703 33.0942ZM199.041 25.0791C199.269 25.1133 199.497 25.1418 199.725 25.1646C199.964 25.1759 200.192 25.1816 200.408 25.1816C201.832 25.1816 202.909 24.8 203.638 24.0366C204.379 23.2733 204.749 22.1283 204.749 20.6016C204.749 19.3483 204.453 18.3571 203.86 17.6279C203.279 16.8988 202.419 16.5342 201.28 16.5342C200.915 16.5342 200.59 16.5513 200.306 16.5854C200.032 16.6082 199.799 16.6367 199.605 16.6709C199.389 16.7165 199.201 16.762 199.041 16.8076V25.0791ZM201.656 26.1899C201.428 26.2241 201.2 26.2469 200.972 26.2583C200.756 26.2583 200.534 26.2583 200.306 26.2583C200.123 26.2583 199.924 26.2526 199.708 26.2412C199.491 26.2298 199.269 26.2127 199.041 26.1899V27.0273C199.041 28.0413 199.052 28.93 199.075 29.6934C199.098 30.4453 199.126 31.0947 199.161 31.6416C199.206 32.1885 199.257 32.6499 199.314 33.0259C199.371 33.3905 199.44 33.6924 199.52 33.9316V34H195.572V33.9316C195.652 33.6924 195.72 33.3848 195.777 33.0088C195.845 32.6328 195.896 32.1714 195.931 31.6245C195.976 31.0662 196.01 30.4054 196.033 29.6421C196.056 28.8787 196.067 27.9844 196.067 26.959V22.6523C196.067 21.627 196.056 20.7383 196.033 19.9863C196.01 19.223 195.976 18.5679 195.931 18.021C195.896 17.4627 195.845 16.9956 195.777 16.6196C195.72 16.2437 195.652 15.936 195.572 15.6968V15.6284C195.754 15.6398 195.948 15.6512 196.153 15.6626C196.324 15.674 196.512 15.6854 196.717 15.6968C196.933 15.6968 197.15 15.6968 197.366 15.6968C197.731 15.6968 198.272 15.6626 198.99 15.5942C199.708 15.5259 200.551 15.4917 201.519 15.4917C202.499 15.4917 203.388 15.6113 204.185 15.8506C204.994 16.0898 205.683 16.4316 206.253 16.876C206.834 17.3203 207.278 17.8615 207.586 18.4995C207.905 19.1375 208.064 19.8496 208.064 20.6357C208.064 21.251 207.979 21.8149 207.808 22.3276C207.637 22.8289 207.398 23.2847 207.09 23.6948C206.783 24.0936 206.418 24.4468 205.997 24.7544C205.575 25.062 205.108 25.3298 204.595 25.5576L208.167 30.5991C208.475 31.0093 208.782 31.4023 209.09 31.7783C209.409 32.1543 209.711 32.4904 209.996 32.7866C210.28 33.0828 210.548 33.3335 210.799 33.5386C211.049 33.7323 211.26 33.8633 211.431 33.9316V34H206.954C206.954 33.8975 206.88 33.7209 206.731 33.4702C206.595 33.2082 206.43 32.9404 206.236 32.667C206.054 32.3822 205.866 32.1087 205.672 31.8467C205.49 31.5846 205.353 31.391 205.262 31.2656L201.656 26.1899ZM211.841 33.9316C211.989 33.7721 212.138 33.4816 212.286 33.0601C212.445 32.6385 212.57 32.1828 212.662 31.6929C212.798 30.8953 212.946 29.9896 213.106 28.9756C213.277 27.9502 213.442 26.8963 213.602 25.814C213.772 24.7316 213.938 23.6549 214.097 22.584C214.257 21.5016 214.405 20.499 214.542 19.5762C214.678 18.6533 214.792 17.8444 214.883 17.1494C214.974 16.4544 215.037 15.9474 215.071 15.6284H217.105L225.257 30.2231L233.614 15.6284H235.271L237.322 29.8984C237.425 30.5479 237.522 31.1004 237.613 31.5562C237.715 32.0119 237.812 32.3993 237.903 32.7183C237.994 33.0259 238.086 33.2765 238.177 33.4702C238.268 33.6639 238.348 33.8177 238.416 33.9316V34H234.212V33.9316C234.246 33.8405 234.286 33.6867 234.332 33.4702C234.389 33.2537 234.417 32.9974 234.417 32.7012C234.417 32.5075 234.4 32.2284 234.366 31.8638C234.343 31.4992 234.303 31.1403 234.246 30.7871L232.776 20.311L225 33.9658L223.787 33.7949L216.148 20.2085C215.863 22.1226 215.612 23.8942 215.396 25.5234C215.305 26.2184 215.214 26.9134 215.123 27.6084C215.031 28.3034 214.952 28.9585 214.883 29.5737C214.815 30.1776 214.758 30.7131 214.712 31.1802C214.667 31.6473 214.644 31.9948 214.644 32.2227C214.644 32.5075 214.65 32.7581 214.661 32.9746C214.673 33.1797 214.69 33.362 214.712 33.5215C214.735 33.7038 214.758 33.8633 214.781 34H211.841V33.9316Z" fill="black"/>
</svg>
