<svg width="21" height="21" viewBox="0 0 21 21" fill="none" xmlns="http://www.w3.org/2000/svg">
<path d="M20.0152 3.4192C20.22 3.13363 19.8608 2.78711 19.5281 2.90031C19.1817 3.0182 18.9822 2.5334 19.202 2.24086C19.3274 2.07408 19.4424 1.89773 19.5471 1.71181C19.7838 1.29156 19.2815 0.90684 18.8455 1.11308C18.5452 1.25514 18.2385 1.37568 17.9254 1.47471C17.6023 1.57691 17.2611 1.44511 17.0261 1.20084C16.2578 0.401941 15.3472 0.00234985 14.294 0.00234985C13.1226 0.00234985 12.1238 0.502331 11.2972 1.50251C10.4711 2.50264 10.058 3.71167 10.058 5.12977C10.058 5.73235 9.58413 6.27099 8.99081 6.16573C7.69376 5.93562 6.46042 5.45539 5.29066 4.72503C4.50628 4.23521 3.78328 3.66123 3.12164 3.0031C2.28137 2.16728 0.851248 2.34117 0.851248 3.52635C0.851248 4.40476 1.02171 5.21978 1.36287 5.97121C1.51176 6.29932 1.6832 6.60018 1.87716 6.87381C2.10897 7.20085 1.87962 7.67444 1.51011 7.51904C1.29425 7.42826 1.08359 7.31555 0.878107 7.1809C0.855505 7.16609 0.825251 7.18217 0.825251 7.20919C0.825251 8.44753 1.14656 9.53474 1.78911 10.4716C2.18729 11.0521 2.6501 11.4993 3.1775 11.8134C3.45477 11.9786 3.42981 12.4161 3.10707 12.4161C2.73233 12.4161 2.41963 12.7536 2.56403 13.0994C2.8521 13.7892 3.2648 14.379 3.80208 14.8691C4.54522 15.5463 4.94328 17.0165 4.02921 17.4352C3.08581 17.8674 2.07901 18.0835 1.0088 18.0835C0.727312 18.0835 0.584243 18.4631 0.819969 18.617C2.56131 19.7535 4.45156 20.3218 6.49081 20.3218C7.99463 20.3218 9.40669 20.0337 10.7265 19.4567C12.047 18.8802 13.1747 18.1075 14.1103 17.1389C15.0457 16.1706 15.8524 15.0567 16.53 13.7974C17.2074 12.5379 17.7122 11.2231 18.0448 9.85256C18.3768 8.48178 18.543 7.1089 18.543 5.73283C18.543 5.64858 18.5426 5.57033 18.5419 5.49807C18.5393 5.22538 18.6514 4.96269 18.8478 4.77345C19.2714 4.36524 19.6605 3.91377 20.0152 3.4192Z" fill="#1168A7"/>
</svg>
