<svg width="22" height="20" viewBox="0 0 22 20" fill="none" xmlns="http://www.w3.org/2000/svg">
<path d="M20.9667 2.37523C20.1793 1.24207 18.7252 0.779846 15.9485 0.779846H5.86854C3.02815 0.779846 1.54951 1.27188 0.764938 2.47829C0 3.65455 0 5.38768 0 7.78636V12.3582C0 17.0053 0.907594 19.3647 5.86854 19.3647H15.9485C18.3565 19.3647 19.6909 18.9569 20.5542 17.9568C21.4395 16.9313 21.8172 15.257 21.8172 12.3582V7.78636C21.8172 5.25675 21.758 3.51341 20.9667 2.37523ZM14.0067 10.7035L9.42944 13.5991C9.32712 13.6638 9.21521 13.6959 9.10345 13.6959C8.97691 13.6959 8.85066 13.6547 8.73883 13.5727C8.52826 13.4183 8.39967 13.142 8.39967 12.8441V7.07147C8.39967 6.774 8.5279 6.498 8.73806 6.34347C8.94827 6.18895 9.20972 6.17838 9.42783 6.31553L14.0051 9.19245C14.238 9.33881 14.3842 9.6298 14.3845 9.94729C14.3849 10.265 14.2393 10.5565 14.0067 10.7035Z" fill="#1168A7"/>
</svg>
